<svg xmlns="http://www.w3.org/2000/svg" width="58.118" height="21.459" viewBox="0 0 58.118 21.459">
    <g id="Group_557" data-name="Group 557" transform="translate(-165.302 -371.367)">
        <g id="Group_409" data-name="Group 409" transform="translate(166 371.867)">
            <g id="Group_385" data-name="Group 385">
                <path id="Path_276" data-name="Path 276" d="M51.62-75.42v3.239h1.938l1.653-2.038h2.177v-1.2Z"
                    transform="translate(-22.003 85.996)" fill="none" stroke="#fff" stroke-linecap="round"
                    stroke-linejoin="round" stroke-width="1" />
                <rect id="Rectangle_1166" data-name="Rectangle 1166" width="5.77" height="3.243"
                    transform="translate(23.844 10.575)" fill="none" stroke="#fff" stroke-linecap="round"
                    stroke-linejoin="round" stroke-width="1" />
                <rect id="Rectangle_1167" data-name="Rectangle 1167" width="5.77" height="3.243"
                    transform="translate(18.074 10.575)" fill="none" stroke="#fff" stroke-linecap="round"
                    stroke-linejoin="round" stroke-width="1" />
                <rect id="Rectangle_1168" data-name="Rectangle 1168" width="5.768" height="3.239"
                    transform="translate(12.306 10.576)" fill="none" stroke="#fff" stroke-linecap="round"
                    stroke-linejoin="round" stroke-width="1" />
                <rect id="Rectangle_1169" data-name="Rectangle 1169" width="5.77" height="3.243"
                    transform="translate(29.613 7.332)" fill="none" stroke="#fff" stroke-linecap="round"
                    stroke-linejoin="round" stroke-width="1" />
                <rect id="Rectangle_1170" data-name="Rectangle 1170" width="5.77" height="3.243"
                    transform="translate(23.844 7.332)" fill="none" stroke="#fff" stroke-linecap="round"
                    stroke-linejoin="round" stroke-width="1" />
                <rect id="Rectangle_1171" data-name="Rectangle 1171" width="5.77" height="3.243"
                    transform="translate(18.074 7.332)" fill="none" stroke="#fff" stroke-linecap="round"
                    stroke-linejoin="round" stroke-width="1" />
                <rect id="Rectangle_1172" data-name="Rectangle 1172" width="5.768" height="3.246"
                    transform="translate(12.306 7.33)" fill="none" stroke="#fff" stroke-linecap="round"
                    stroke-linejoin="round" stroke-width="1" />
                <rect id="Rectangle_1173" data-name="Rectangle 1173" width="5.768" height="3.239"
                    transform="translate(3.843 10.576)" fill="none" stroke="#fff" stroke-linecap="round"
                    stroke-linejoin="round" stroke-width="1" />
                <rect id="Rectangle_1174" data-name="Rectangle 1174" width="5.768" height="3.246"
                    transform="translate(3.843 7.33)" fill="none" stroke="#fff" stroke-linecap="round"
                    stroke-linejoin="round" stroke-width="1" />
                <path id="Path_277" data-name="Path 277"
                    d="M44.15-75.886l1.142,5.038a4.87,4.87,0,0,1,.538-.033c2.031,0,3.677,1.633,6.584,1.633s3.186-2.124,6.6-2.124,6.418,1.865,9.7,1.865,3.617-1.865,7.52-1.865a14.164,14.164,0,0,1,2.078.146l4.016-6.7H75.194l-1.653,2.038-.007.007H54.292v-6.75l1.527-1.533v-2.29H49.825v2.29l1.659,1.533v.259H51.6v6.485h-.113v.007Z"
                    transform="translate(-41.986 89.708)" fill="none" stroke="#fff" stroke-linecap="round"
                    stroke-linejoin="round" stroke-width="1" />
                <path id="Path_278" data-name="Path 278" d="M90.62-73.825V-80.31" transform="translate(-81.122 87.64)"
                    fill="none" stroke="#fff" stroke-linecap="round" stroke-linejoin="round" stroke-width="1" />
                <line id="Line_63" data-name="Line 63" y1="3.245" transform="translate(10.827)" fill="none"
                    stroke="#fff" stroke-linecap="round" stroke-linejoin="round" stroke-width="1" />
                <path id="Path_279" data-name="Path 279" d="M103.255-62.94a7.756,7.756,0,0,0-3.305,1.281"
                    transform="translate(-99.95 81.799)" fill="none" stroke="#fff" stroke-linecap="round"
                    stroke-linejoin="round" stroke-width="1" />
                <path id="Path_280" data-name="Path 280" d="M48.166-62.2A10.408,10.408,0,0,0,44.15-63.51"
                    transform="translate(-7.823 81.991)" fill="none" stroke="#fff" stroke-linecap="round"
                    stroke-linejoin="round" stroke-width="1" />
            </g>
        </g>
        <g id="Component_49_1" data-name="Component 49 – 1" transform="translate(223.419 380.581) rotate(90)">
            <path id="Path_10" data-name="Path 10"
                d="M5.419,0,4.434.985l3.73,3.73H0V6.123H8.164l-3.73,3.73.985.985,5.419-5.419Z"
                transform="translate(0 10.839) rotate(-90)" fill="#fff" />
        </g>
    </g>
</svg>