<svg id="Layer_1" data-name="Layer 1" xmlns="http://www.w3.org/2000/svg" viewBox="0 0 39.18 20.75"><defs><style>.cls-1{fill:#004273;}</style></defs><path class="cls-1" d="M39.11,13.06a.48.48,0,0,0-.43-.25H34.22v-.57h0V9.37a.5.5,0,0,0-.5-.5H22.18a.5.5,0,0,0-.5.5v2.37H16.91V9.36a.5.5,0,0,0-.5-.5H11.7l.8-.71a.5.5,0,0,0,.17-.37v-2a.5.5,0,0,0-.5-.5H9.66V2.87a.5.5,0,0,0-.5-.5.5.5,0,0,0-.5.5V5.25H6.17a.5.5,0,0,0-.5.5v2a.47.47,0,0,0,.19.38l.85.7H2.18a.5.5,0,0,0-.5.5v2.88h0v2.38H.5a.52.52,0,0,0-.41.21.48.48,0,0,0-.06.45l1.56,4.47H.5a.5.5,0,0,0-.5.5.5.5,0,0,0,.5.5H38.25a.5.5,0,0,0,.5-.5.5.5,0,0,0-.5-.5H35.53l3.58-6.19A.5.5,0,0,0,39.11,13.06Zm-11.66-.32v1.87H22.68V12.74Zm2.22,1.87H28.45V12.74h4.77v.06H31.54a.5.5,0,0,0-.37.17ZM15.91,12.74v1.87H11.14V12.74Zm17.31-1H28.45V9.87h4.77ZM22.68,9.87h4.77v1.87H22.68Zm-1,4.74H16.91V12.74h4.77Zm-5.77-2.87H11.14V9.86h4.77Zm-13.23,1H7.33v1.87H2.68ZM7.33,9.86v1.88H2.68V9.86Zm27.05,9.88c-3.25-.06-27.42,0-31.73,0L1.21,15.62H8a.5.5,0,0,0,.5-.5V9.36A.51.51,0,0,0,8.32,9a.46.46,0,0,0-.17-.28L6.67,7.54V6.25h5v1.3L10.31,8.76a.5.5,0,0,0-.17.37v3.11h0v2.87h0a.51.51,0,0,0,.5.5H29.88a.54.54,0,0,0,.38-.17l1.5-1.64h6.05ZM13.25,1h5.5V2.87H16.41a.5.5,0,0,0-.5.5V6.24a.5.5,0,0,0,.5.5h5.77a.5.5,0,0,0,.5-.5V3.37a.5.5,0,0,0-.5-.5H19.75V1h6V8.5h1V7.24h2V8.5h1V1h8.5a.5.5,0,0,0,.5-.5.5.5,0,0,0-.5-.5h-25a.5.5,0,0,0,0,1Zm8.43,4.74H16.91V3.87h4.77ZM26.75,4h1.54L26.75,5.53Zm2-1H27.46l1.29-1.29Zm-2-.71V1h1.3Zm.71,4L28.75,5V6.24Z"/></svg>