<?xml version="1.0" encoding="utf-8"?>
<!-- Generator: Adobe Illustrator 26.2.1, SVG Export Plug-In . SVG Version: 6.00 Build 0)  -->
<svg version="1.1" id="Layer_1" xmlns="http://www.w3.org/2000/svg" xmlns:xlink="http://www.w3.org/1999/xlink" x="0px" y="0px"
	 viewBox="0 0 10.7 11.4" style="enable-background:new 0 0 10.7 11.4;" xml:space="preserve">
<style type="text/css">
	.st0{fill:#004273;}
</style>
<path class="st0" d="M5.8,8.2l4.9-2.5L9.1,0L5.5,1.4C4.9,0.8,4.2,0.8,4.2,0.8L0,2.5l0.1,0.3L3,11.4l0.9-0.3L3,8.3l2.5-1.4L5.8,8.2z
	 M9.5,5.2l-3,1.5L6.4,6.3l0.1-0.2C6.8,5,6.7,3.8,6.3,2.7C6.2,2.5,6.2,2.4,6.1,2.3l2.3-0.9L9.5,5.2z M1.3,3.2C1.9,3.5,2.4,4,2.6,4.6
	c0.2,0.9,0.3,1.8,0,2.7L1.3,3.2z M3.6,4.3C3.3,3.6,2.9,3.1,2.3,2.7l2-0.8C4.5,1.9,5,2,5.4,3c0.3,0.8,0.4,1.7,0.2,2.6l-1.8,1
	C3.9,5.9,3.8,5.1,3.6,4.3z"/>
</svg>
