<svg id="Layer_1" data-name="Layer 1" xmlns="http://www.w3.org/2000/svg" viewBox="0 0 24 24"><defs><style>.cls-1{fill:#004273;}</style></defs><path class="cls-1" d="M12,0A12,12,0,1,0,24,12,12,12,0,0,0,12,0Zm0,23A11,11,0,1,1,23,12,11,11,0,0,1,12,23Zm6-10.61,1,.06c0,.06-.45,6.23-6.8,6.23S5,12.54,5,12.48l1-.12a6.08,6.08,0,0,0,6.17,5.32A5.57,5.57,0,0,0,18,12.39ZM7,8.49l1-.13a1,1,0,0,0,1,.89.91.91,0,0,0,1-.86l1,.06a1.92,1.92,0,0,1-1.92,1.8H9A2,2,0,0,1,7,8.49Zm6,0,1-.13a1,1,0,0,0,1,.89.88.88,0,0,0,1-.86l1,.06a1.92,1.92,0,0,1-1.92,1.8H15A2,2,0,0,1,13,8.49Z"/></svg>