<svg id="Layer_1" data-name="Layer 1" xmlns="http://www.w3.org/2000/svg" viewBox="0 0 48.49 18.73"><defs><style>.cls-1{fill:#004273;}</style></defs><path class="cls-1" d="M48,17.73h-5.5V15h0V11.74a.5.5,0,0,0-.5-.5H36.22a.5.5,0,0,0-.5.5V15h0v2.74H33.49V1H42a.5.5,0,0,0,.5-.5A.5.5,0,0,0,42,0H17a.5.5,0,0,0,0,1h5.5V2.87H20.15a.5.5,0,0,0-.5.5V6.24a.5.5,0,0,0,.5.5h5.77a.5.5,0,0,0,.5-.5V3.37a.5.5,0,0,0-.5-.5H23.49V1h6V17.73H28.3V15h0V11.74a.5.5,0,0,0-.5-.5h-11V8.5a.5.5,0,0,0-.5-.5H10.49a.5.5,0,0,0-.5.5v2.74H4.73a.5.5,0,0,0-.5.5V15h0v2.74H.5a.5.5,0,0,0-.5.5.5.5,0,0,0,.5.5H48a.5.5,0,0,0,.5-.5A.5.5,0,0,0,48,17.73Zm-6.5-2.24v2.24H36.72V15.49Zm0-3.25v2.25H36.72V12.24ZM25.42,5.74H20.65V3.87h4.77Zm7.07,7H31.2l1.29-1.29Zm0-3.24H31.2l1.29-1.29Zm0-3.24H31.2L32.49,5Zm0-3.24H31.2l1.29-1.29Zm-2,1H32L30.49,5.53Zm0,3.24H32L30.49,8.77Zm0,3.24H32L30.49,12Zm0,3.24H32l-1.54,1.53Zm2,.95V16H31.2ZM31.79,1l-1.3,1.29V1Zm-1.3,16h2v.77h-2ZM5.23,15.49H10v2.24H5.23Zm16.3-1H16.76V12.24h4.77Zm-5.77,0H11V12.24h4.77Zm11.54,0H22.53V12.24H27.3ZM11,9h4.77v2.24H11Zm-1,3.24v2.25H5.23V12.24Zm1,3.25h4.77v2.24H11Zm5.77,0h4.77v2.24H16.76Zm5.77,2.24V15.49H27.3v2.24Z"/></svg>