<svg xmlns="http://www.w3.org/2000/svg" width="25.25" height="14.273" viewBox="0 0 25.25 14.273">
    <path id="Group_560" data-name="Group 560" d="M2.78,1.88a.52.52,0,0,0-.5.5V7.17a.5.5,0,0,0,1,0V2.38a.5.5,0,0,0-.5-.5Zm2.56,0a.52.52,0,0,0-.5.5V7.17a.5.5,0,0,0,1,0V2.38a.5.5,0,0,0-.5-.5Zm2.56,0a.5.5,0,0,0-.5.5h0V7.17a.5.5,0,1,0,1,0V2.38a.5.5,0,0,0-.5-.5Zm2.56,0a.5.5,0,0,0-.5.5h0V7.17a.5.5,0,1,0,1,0V2.38a.5.5,0,0,0-.5-.5Zm2.54,0a.5.5,0,0,0-.5.5h0V7.17a.5.5,0,0,0,1,0V2.38a.5.5,0,0,0-.5-.5Zm2.58,0a.5.5,0,0,0-.5.5h0V7.17a.5.5,0,0,0,1,0V2.38a.52.52,0,0,0-.5-.5Zm7.35.41H18.66V.5a.5.5,0,0,0-.5-.5H.5A.5.5,0,0,0,0,.5V9.23a.5.5,0,0,0,.5.5H2.29a2.5,2.5,0,1,0,3.5.5,2.37,2.37,0,0,0-.5-.5h2a2.49,2.49,0,1,0,3.93,2.5h7.1A2.49,2.49,0,0,0,23.25,12h2V7.25ZM3.77,13.23a1.5,1.5,0,1,1,1.5-1.5A1.5,1.5,0,0,1,3.77,13.23ZM1,1H17.66V8.73H1ZM8.77,13.23a1.5,1.5,0,1,1,1.5-1.5A1.5,1.5,0,0,1,8.77,13.23Zm12,0a1.5,1.5,0,1,1,1.5-1.5A1.5,1.5,0,0,1,20.77,13.23ZM24.23,11H23.14a2.5,2.5,0,0,0-4.82.28h-7.1a2.51,2.51,0,0,0-1-1.5h7.9a.52.52,0,0,0,.5-.5v-6H22.3L24,6.88,20,5.26l-.37.93,4.64,1.86Z" fill="#004273"/>
  </svg>
  