<svg id="Layer_1" data-name="Layer 1" xmlns="http://www.w3.org/2000/svg" viewBox="0 0 57.92 21.46"><defs><style>.cls-1{fill:#004273;}</style></defs><path class="cls-1" d="M41.09,19.86a10.73,10.73,0,0,0-3.46-1.25l3.64-6.07a.5.5,0,0,0,0-.5.51.51,0,0,0-.44-.26H36.38v-.7h0V7.83a.5.5,0,0,0-.5-.5H13.76l.93-.93A.52.52,0,0,0,14.83,6V3.75a.5.5,0,0,0-.5-.5h-2.5V.5a.5.5,0,0,0-.5-.5.5.5,0,0,0-.5.5V3.25H8.34a.5.5,0,0,0-.5.5V6A.51.51,0,0,0,8,6.41l1,.92H4.34a.5.5,0,0,0-.5.5v6H2.66a.51.51,0,0,0-.39.19.49.49,0,0,0-.09.42L3.2,19a8.11,8.11,0,0,0-3,1.26.49.49,0,0,0-.13.69.49.49,0,0,0,.41.22.47.47,0,0,0,.28-.09,7.32,7.32,0,0,1,3.08-1.19h0a6,6,0,0,1,3,.64,10.38,10.38,0,0,0,4.08,1,5.64,5.64,0,0,0,3.27-1.07,5.51,5.51,0,0,1,3.33-1.05,17.37,17.37,0,0,1,4.8.92,17.58,17.58,0,0,0,4.9.94,7.52,7.52,0,0,0,3.61-.92,7.82,7.82,0,0,1,3.91-.94,13.74,13.74,0,0,1,2,.14h0a9.88,9.88,0,0,1,3.82,1.24.47.47,0,0,0,.25.07.51.51,0,0,0,.44-.25A.5.5,0,0,0,41.09,19.86ZM24.84,8.33h4.77v2.24H24.84Zm-5.77,3.25h4.77v2.24H19.07Zm-5.76,0h4.76v2.23H13.31Zm11.53,0h4.77v2.24H24.84Zm10.54,0v.2H33.71a.48.48,0,0,0-.39.18l-1.5,1.85h-1.2V11.58Zm0-1H30.61V8.33h4.77Zm-11.54,0H19.07V8.33h4.77Zm-5.77,0H13.31V8.33h4.76Zm-13.23,1H9.5v2.23H4.84Zm0-3.25H9.5v2.25H4.84Zm29.91,10a8.91,8.91,0,0,0-4.34,1,6.49,6.49,0,0,1-3.18.82,16.44,16.44,0,0,1-4.61-.9,18.22,18.22,0,0,0-5.09-1,6.48,6.48,0,0,0-3.86,1.2,4.67,4.67,0,0,1-2.74.92,9.38,9.38,0,0,1-3.71-.89,7.72,7.72,0,0,0-2.88-.74H4.2l-.91-4h6.82a.5.5,0,0,0,.5-.5V7.84a.38.38,0,0,0,0-.19.16.16,0,0,0,0-.07.25.25,0,0,0,0-.07.51.51,0,0,0-.15-.3L8.84,5.83V4.25h5V5.84L12.45,7.22a.52.52,0,0,0-.14.36v6.75a.5.5,0,0,0,.5.5H32.05a.52.52,0,0,0,.19-.06.37.37,0,0,0,.12-.07l.08-.06L34,12.78h6l-3.39,5.66C36,18.37,35.36,18.35,34.75,18.34ZM52.5,9.21l-1,1,3.73,3.73H47.08v1.41h8.16l-3.73,3.73,1,1,5.42-5.42Z"/></svg>