<?xml version="1.0" encoding="UTF-8"?><svg id="a" xmlns="http://www.w3.org/2000/svg" viewBox="0 0 48.52 14.7"><defs><style>.b{fill:#004273;}</style></defs><path class="b" d="M48.02,13.7h-2.65c.16-.22,.28-.47,.35-.73,.08-.01,.17-.03,.24-.08,.06-.05,1.51-1.16,1.51-3.02,0-1.7-1.47-2.7-1.53-2.74l-.13-.08h-4.26l-.62-2.66h-4.69l-1.94,5.39-.02,2.07h-.55V.5c0-.28-.22-.5-.5-.5s-.5,.22-.5,.5V11.85h-4.69c-.28,0-.5,.22-.5,.5s.22,.5,.5,.5h7.2c.07,.31,.21,.6,.38,.85h-11.16V1.76H2.2V13.7H.5c-.28,0-.5,.22-.5,.5s.22,.5,.5,.5H48.02c.28,0,.5-.22,.5-.5s-.22-.5-.5-.5Zm-24.57,0H3.21V2.76H23.45V13.7Zm18.66-1.35c0-.75,.61-1.35,1.35-1.35s1.35,.61,1.35,1.35-.61,1.35-1.35,1.35-1.35-.61-1.35-1.35Zm-5.17-6.96h3.2l.42,1.78-4.64,1.07,1.03-2.85Zm-1.68,4.65l.25-.68s.02,0,.03,0l5.67-1.31h4.28c.28,.22,.98,.88,.98,1.83,0,.84-.42,1.49-.75,1.86-.27-1-1.18-1.73-2.26-1.73s-2.07,.79-2.3,1.85h-1.34c-.23-1.06-1.17-1.85-2.3-1.85-1.04,0-1.92,.69-2.23,1.63l-.04-1.59Zm6.29,3.66h-2.11c.18-.25,.32-.54,.38-.85h1.34c.07,.31,.2,.6,.38,.85Zm-5.38-1.35c0-.75,.61-1.35,1.35-1.35s1.35,.61,1.35,1.35-.61,1.35-1.35,1.35-1.35-.61-1.35-1.35Z"/><path class="b" d="M5.45,11.51c.28,0,.5-.22,.5-.5V5.24c0-.28-.22-.5-.5-.5s-.5,.22-.5,.5v5.77c0,.28,.22,.5,.5,.5Z"/><path class="b" d="M8.53,11.51c.28,0,.5-.22,.5-.5V5.24c0-.28-.22-.5-.5-.5s-.5,.22-.5,.5v5.77c0,.28,.22,.5,.5,.5Z"/><path class="b" d="M11.61,11.51c.28,0,.5-.22,.5-.5V5.24c0-.28-.22-.5-.5-.5s-.5,.22-.5,.5v5.77c0,.28,.22,.5,.5,.5Z"/><path class="b" d="M14.69,11.51c.28,0,.5-.22,.5-.5V5.24c0-.28-.22-.5-.5-.5s-.5,.22-.5,.5v5.77c0,.28,.22,.5,.5,.5Z"/><path class="b" d="M17.77,11.51c.28,0,.5-.22,.5-.5V5.24c0-.28-.22-.5-.5-.5s-.5,.22-.5,.5v5.77c0,.28,.22,.5,.5,.5Z"/><path class="b" d="M20.85,11.51c.28,0,.5-.22,.5-.5V5.24c0-.28-.22-.5-.5-.5s-.5,.22-.5,.5v5.77c0,.28,.22,.5,.5,.5Z"/><path class="b" d="M32.07,6.04h-4.96v4.96h4.96V6.04Zm-1,3.96h-2.96v-2.96h2.96v2.96Z"/></svg>