<?xml version="1.0" encoding="UTF-8"?><svg id="a" xmlns="http://www.w3.org/2000/svg" viewBox="0 0 48.52 14.7"><defs><style>.b{fill:#004273;}</style></defs><path class="b" d="M48.02,13.7h-11.05c.18-.25,.32-.54,.38-.85h7.2c.28,0,.5-.22,.5-.5s-.22-.5-.5-.5h-4.69V.5c0-.28-.22-.5-.5-.5s-.5,.22-.5,.5V11.85h-.55l-.02-2.07-1.94-5.39h-4.69l-.62,2.66h-4.26l-.13,.08c-.06,.04-1.53,1.04-1.53,2.74,0,1.86,1.45,2.97,1.51,3.02,.07,.05,.16,.07,.24,.08,.07,.27,.2,.51,.35,.73h-2.76V1.76H2.2V13.7H.5c-.28,0-.5,.22-.5,.5s.22,.5,.5,.5H48.02c.28,0,.5-.22,.5-.5s-.22-.5-.5-.5Zm-24.57,0H3.21V2.76H23.45V13.7Zm10.25-1.35c0-.75,.61-1.35,1.35-1.35s1.35,.61,1.35,1.35-.61,1.35-1.35,1.35-1.35-.61-1.35-1.35Zm-1.26-6.96h3.2l1.03,2.85-4.64-1.07,.42-1.78Zm-6.33,4.48c0-.94,.7-1.6,.98-1.83h4.28l5.67,1.31s.02,0,.03,0l.25,.68-.04,1.59c-.31-.94-1.18-1.63-2.23-1.63-1.12,0-2.07,.79-2.3,1.85h-1.34c-.23-1.06-1.17-1.85-2.3-1.85s-1.99,.74-2.26,1.73c-.33-.37-.75-1.02-.75-1.86Zm7.03,3.83h-2.11c.18-.25,.32-.54,.38-.85h1.34c.07,.31,.21,.6,.38,.85Zm-5.38-1.35c0-.75,.61-1.35,1.35-1.35s1.35,.61,1.35,1.35-.61,1.35-1.35,1.35-1.35-.61-1.35-1.35Z"/><path class="b" d="M5.45,11.51c.28,0,.5-.22,.5-.5V5.24c0-.28-.22-.5-.5-.5s-.5,.22-.5,.5v5.77c0,.28,.22,.5,.5,.5Z"/><path class="b" d="M8.53,11.51c.28,0,.5-.22,.5-.5V5.24c0-.28-.22-.5-.5-.5s-.5,.22-.5,.5v5.77c0,.28,.22,.5,.5,.5Z"/><path class="b" d="M11.61,11.51c.28,0,.5-.22,.5-.5V5.24c0-.28-.22-.5-.5-.5s-.5,.22-.5,.5v5.77c0,.28,.22,.5,.5,.5Z"/><path class="b" d="M14.69,11.51c.28,0,.5-.22,.5-.5V5.24c0-.28-.22-.5-.5-.5s-.5,.22-.5,.5v5.77c0,.28,.22,.5,.5,.5Z"/><path class="b" d="M17.77,11.51c.28,0,.5-.22,.5-.5V5.24c0-.28-.22-.5-.5-.5s-.5,.22-.5,.5v5.77c0,.28,.22,.5,.5,.5Z"/><path class="b" d="M20.85,11.51c.28,0,.5-.22,.5-.5V5.24c0-.28-.22-.5-.5-.5s-.5,.22-.5,.5v5.77c0,.28,.22,.5,.5,.5Z"/><path class="b" d="M45.47,6.04h-4.96v4.96h4.96V6.04Zm-1,3.96h-2.96v-2.96h2.96v2.96Z"/></svg>