<?xml version="1.0" encoding="UTF-8"?><svg id="a" xmlns="http://www.w3.org/2000/svg" viewBox="0 0 57.95 21.53"><defs><style>.b{fill:#004273;}</style></defs><polygon class="b" points="52.52 9.21 51.52 10.21 55.25 13.94 47.1 13.94 47.1 15.35 55.26 15.35 51.53 19.08 52.53 20.08 57.95 14.66 52.52 9.21"/><path class="b" d="M41.11,19.86c-1.07-.61-2.24-1.04-3.46-1.25l3.64-6.07c.09-.15,.09-.35,0-.5-.09-.16-.26-.26-.44-.26h-4.45v-3.95c0-.28-.22-.5-.5-.5h-3.65C31.57,3.31,28.07,.24,23.86,.24s-7.71,3.07-8.39,7.09h-1.69l.93-.93c.1-.11,.15-.25,.14-.4V3.75c0-.28-.22-.5-.5-.5h-2.5V.5c0-.28-.22-.5-.5-.5s-.5,.22-.5,.5V3.25h-2.49c-.28,0-.5,.22-.5,.5v2.25c-.01,.15,.05,.3,.16,.41l1,.92H4.36c-.28,0-.5,.22-.5,.5v6h-1.18c-.15,0-.29,.07-.39,.19-.09,.12-.13,.27-.09,.42l1.02,4.56c-1.07,.21-2.1,.64-3,1.26-.23,.15-.29,.45-.14,.68,.01,0,.01,.01,.01,.01,.09,.14,.25,.22,.41,.22,.1,0,.2-.03,.28-.09,.92-.63,1.98-1.03,3.08-1.19,.1,0,.19-.01,.29-.01,.94,0,1.87,.22,2.71,.65,1.28,.61,2.67,.95,4.08,1,1.17-.01,2.32-.38,3.27-1.07,.97-.7,2.14-1.07,3.33-1.05,1.64,.08,3.25,.39,4.8,.92,1.58,.54,3.23,.86,4.9,.94,1.26,0,2.5-.32,3.61-.92,1.2-.65,2.55-.97,3.91-.94,.67,0,1.34,.04,2,.14,1.34,.15,2.64,.57,3.82,1.24,.08,.05,.16,.07,.25,.07,.18,0,.35-.09,.44-.25,.17-.22,.13-.53-.09-.7-.02-.02-.04-.04-.07-.05Zm-5.71-11.53v2.25h-3.22c.13-.59,.2-1.19,.2-1.82,0-.15-.01-.29-.02-.43h3.04Zm-3.51,3.25h3.51v.2h-1.67c-.15,0-.3,.06-.39,.18l-1.5,1.85h-1.13c.5-.67,.9-1.42,1.18-2.23ZM23.86,1.24c4.15,0,7.52,3.37,7.52,7.52s-3.37,7.52-7.52,7.52-7.52-3.37-7.52-7.52,3.37-7.52,7.52-7.52Zm-6.85,12.57h-3.68v-2.23h2.5c.28,.81,.68,1.56,1.18,2.23Zm-1.65-5.48c0,.14-.02,.29-.02,.43,0,.62,.07,1.23,.2,1.82h-2.21v-2.25h2.03Zm-10.5,0h4.66v2.25H4.86v-2.25Zm0,3.25h4.66v2.23H4.86v-2.23Zm31.77,6.86c-.61-.07-1.25-.09-1.86-.1h0c-1.51-.05-3,.29-4.34,.99-.97,.54-2.07,.82-3.18,.82-1.57-.08-3.12-.38-4.61-.9-1.64-.57-3.35-.91-5.09-1-1.38-.02-2.73,.4-3.86,1.2-.79,.59-1.75,.91-2.74,.92-1.28-.04-2.55-.34-3.71-.89-.9-.43-1.88-.68-2.88-.74h-.14l-.91-4h6.82c.28,0,.5-.22,.5-.5V7.84c.02-.06,.02-.13,0-.19,.01-.02,.01-.05,0-.07v-.07c-.01-.11-.07-.22-.15-.3l-1.62-1.38v-1.58h5v1.59l-1.39,1.38c-.09,.1-.14,.23-.14,.36v6.75c0,.28,.22,.5,.5,.5h5.06c1.54,1.52,3.65,2.45,5.97,2.45s4.43-.94,5.97-2.45h2.24c.07-.01,.13-.03,.19-.06,.04-.02,.08-.04,.12-.07l.08-.06,1.56-1.86h6l-3.39,5.66Z"/><polygon class="b" points="20.62 5.63 20.62 13.59 22.02 13.59 22.02 5.63 24.07 7.68 25.06 6.69 21.32 2.95 17.58 6.69 18.57 7.68 20.62 5.63"/><polygon class="b" points="23.93 9.85 22.93 10.84 26.68 14.58 30.42 10.84 29.43 9.85 27.38 11.9 27.38 3.94 25.98 3.94 25.98 11.9 23.93 9.85"/></svg>